<?xml version="1.0" standalone="no"?><!DOCTYPE svg PUBLIC "-//W3C//DTD SVG 1.1//EN" "http://www.w3.org/Graphics/SVG/1.1/DTD/svg11.dtd"><svg t="1616227416274" class="icon" viewBox="0 0 1024 1024" version="1.1" xmlns="http://www.w3.org/2000/svg" p-id="12215" xmlns:xlink="http://www.w3.org/1999/xlink" width="200" height="200"><defs><style type="text/css"></style></defs><path d="M512 247.466667m-247.466667 0a247.466667 247.466667 0 1 0 494.933334 0 247.466667 247.466667 0 1 0-494.933334 0Z" p-id="12216"></path><path d="M512 554.666667C251.733333 554.666667 42.666667 746.666667 42.666667 981.333333c0 25.6 17.066667 42.666667 42.666666 42.666667s42.666667-17.066667 42.666667-42.666667c0-187.733333 170.666667-341.333333 384-341.333333s384 153.6 384 341.333333c0 25.6 17.066667 42.666667 42.666667 42.666667s42.666667-17.066667 42.666666-42.666667c0-234.666667-209.066667-426.666667-469.333333-426.666666z" p-id="12217"></path></svg>