<?xml version="1.0" standalone="no"?><!DOCTYPE svg PUBLIC "-//W3C//DTD SVG 1.1//EN" "http://www.w3.org/Graphics/SVG/1.1/DTD/svg11.dtd"><svg t="1616227624095" class="icon" viewBox="0 0 1024 1024" version="1.1" xmlns="http://www.w3.org/2000/svg" p-id="20457" xmlns:xlink="http://www.w3.org/1999/xlink" width="200" height="200"><defs><style type="text/css"></style></defs><path d="M802.4 870.4l-68 0-34.4 0L597.6 870.4l-34.4 0L460.8 870.4l-34.4 0L324 870.4l-34.4 0-68 0c-37.6 0-68-30.4-68-68L153.6 597.6l0-34.4L153.6 289.6c0-37.6 30.4-68 68-68l68 0 0 68c0 37.6 30.4 68 68 68 37.6 0 68-30.4 68-68l0-68 170.4 0 0 68c0 37.6 30.4 68 68 68 37.6 0 68-30.4 68-68l0-68 68 0c37.6 0 68 30.4 68 68l0 273.6 0 34.4 0 204.8C870.4 840 840 870.4 802.4 870.4zM807.2 836.8c16 0 29.6-15.2 29.6-34.4l0-68L734.4 734.4l0 102.4L807.2 836.8zM700 836.8 700 734.4 597.6 734.4l0 102.4L700 836.8zM563.2 836.8 563.2 734.4 460.8 734.4l0 102.4L563.2 836.8zM426.4 836.8 426.4 734.4 324 734.4l0 102.4L426.4 836.8zM187.2 802.4c0 19.2 13.6 34.4 29.6 34.4l72.8 0L289.6 734.4 187.2 734.4 187.2 802.4zM289.6 460.8l-72.8 0c-16 0-29.6 15.2-29.6 34.4l0 68 102.4 0L289.6 460.8zM187.2 597.6l0 102.4 102.4 0L289.6 597.6 187.2 597.6zM426.4 460.8 324 460.8l0 102.4 102.4 0L426.4 460.8zM324 597.6l0 102.4 102.4 0L426.4 597.6 324 597.6zM563.2 460.8 460.8 460.8l0 102.4 102.4 0L563.2 460.8zM700 460.8 597.6 460.8l0 102.4 102.4 0L700 460.8zM597.6 597.6l0 102.4 102.4 0L700 597.6 597.6 597.6zM836.8 495.2c0-19.2-13.6-34.4-29.6-34.4l-72.8 0 0 102.4 102.4 0L836.8 495.2zM734.4 597.6l0 102.4 102.4 0L836.8 597.6 734.4 597.6zM665.6 289.6c-19.2 0-34.4-15.2-34.4-34.4l0-68c0-19.2 15.2-34.4 34.4-34.4 19.2 0 34.4 15.2 34.4 34.4L700 256C700 274.4 684.8 289.6 665.6 289.6zM358.4 289.6c-19.2 0-34.4-15.2-34.4-34.4l0-68c0-19.2 15.2-34.4 34.4-34.4 19.2 0 34.4 15.2 34.4 34.4L392.8 256C392.8 274.4 376.8 289.6 358.4 289.6z" p-id="20458" fill="#25dc69"></path></svg>