<?xml version="1.0" standalone="no"?><!DOCTYPE svg PUBLIC "-//W3C//DTD SVG 1.1//EN" "http://www.w3.org/Graphics/SVG/1.1/DTD/svg11.dtd"><svg t="1616295856862" class="icon" viewBox="0 0 1024 1024" version="1.1" xmlns="http://www.w3.org/2000/svg" p-id="3543" xmlns:xlink="http://www.w3.org/1999/xlink" width="200" height="200"><defs><style type="text/css"></style></defs><path d="M831.8976 618.6496H618.5984v213.4016a71.05536 71.05536 0 0 1-71.168 71.0656h-71.0656a71.05536 71.05536 0 0 1-71.168-71.0656v-213.4016H191.8976a71.12704 71.12704 0 0 1-71.168-71.0656v-71.168a71.12704 71.12704 0 0 1 71.168-71.0656h213.2992v-213.4016a71.12704 71.12704 0 0 1 71.168-71.0656h71.0656a71.12704 71.12704 0 0 1 71.168 71.0656v213.4016h213.2992a71.12704 71.12704 0 0 1 71.168 71.0656v71.168a71.12704 71.12704 0 0 1-71.168 71.0656z" p-id="3544" fill="#25dc69"></path></svg>