<?xml version="1.0" standalone="no"?><!DOCTYPE svg PUBLIC "-//W3C//DTD SVG 1.1//EN" "http://www.w3.org/Graphics/SVG/1.1/DTD/svg11.dtd"><svg t="1616149336598" class="icon" viewBox="0 0 1024 1024" version="1.1" xmlns="http://www.w3.org/2000/svg" p-id="2902" xmlns:xlink="http://www.w3.org/1999/xlink" width="200" height="200"><defs><style type="text/css"></style></defs><path d="M362.666667 192m-64 0a64 64 0 1 0 128 0 64 64 0 1 0-128 0Z" p-id="2903" fill="#1afa29"></path><path d="M661.333333 192m-64 0a64 64 0 1 0 128 0 64 64 0 1 0-128 0Z" p-id="2904" fill="#1afa29"></path><path d="M362.666667 512m-64 0a64 64 0 1 0 128 0 64 64 0 1 0-128 0Z" p-id="2905" fill="#1afa29"></path><path d="M661.333333 512m-64 0a64 64 0 1 0 128 0 64 64 0 1 0-128 0Z" p-id="2906" fill="#1afa29"></path><path d="M362.666667 832m-64 0a64 64 0 1 0 128 0 64 64 0 1 0-128 0Z" p-id="2907" fill="#1afa29"></path><path d="M661.333333 832m-64 0a64 64 0 1 0 128 0 64 64 0 1 0-128 0Z" p-id="2908" fill="#1afa29"></path></svg>